HIERARCHY
ROOT HipCenter
{
    OFFSET 0.0 0.0 -0.0
    CHANNELS 6 Xposition Yposition Zposition Zrotation Xrotation Yrotation
    JOINT Spine
    {
        OFFSET 0.0 0.12092713266611099 0.0
        CHANNELS 3 Zrotation Xrotation Yrotation
        JOINT ShoulderCenter
        {
            OFFSET 0.0 0.33453699946403503 0.0
            CHANNELS 3 Zrotation Xrotation Yrotation
            JOINT LeftShoulder
            {
                OFFSET 0.19064515829086304 0.0 0.0
                CHANNELS 3 Zrotation Xrotation Yrotation
                JOINT LeftElbow
                {
                    OFFSET 0.2975097596645355 0.0 0.0
                    CHANNELS 3 Zrotation Xrotation Yrotation
                    JOINT LeftWrist
                    {
                        OFFSET 0.29605287313461304 0.0 0.0
                        CHANNELS 3 Zrotation Xrotation Yrotation
                        JOINT LeftHand
                        {
                            OFFSET 0.04401935264468193 0.0 0.0
                            CHANNELS 3 Zrotation Xrotation Yrotation
                            End Site
                            {
                                OFFSET 0.01760774292051792 0.0 0.0
                            }
                        }
                    }
                }
            }
            JOINT RightShoulder
            {
                OFFSET -0.19064515829086304 0.0 0.0
                CHANNELS 3 Zrotation Xrotation Yrotation
                JOINT RightElbow
                {
                    OFFSET -0.2975097596645355 0.0 0.0
                    CHANNELS 3 Zrotation Xrotation Yrotation
                    JOINT RightWrist
                    {
                        OFFSET -0.29605287313461304 0.0 0.0
                        CHANNELS 3 Zrotation Xrotation Yrotation
                        JOINT RightHand
                        {
                            OFFSET -0.04401935264468193 0.0 0.0
                            CHANNELS 3 Zrotation Xrotation Yrotation
                            End Site
                            {
                                OFFSET -0.01760774292051792 0.0 0.0
                            }
                        }
                    }
                }
            }
            End Site
            {
                OFFSET 0.0 0.13381479680538177 0.0
            }
        }
    }
    JOINT LeftHip
    {
        OFFSET 0.13973650336265564 0.0 0.0
        CHANNELS 3 Zrotation Xrotation Yrotation
        JOINT LeftKnee
        {
            OFFSET 0.0 -0.4064757227897644 0.0
            CHANNELS 3 Zrotation Xrotation Yrotation
            JOINT LeftAnkle
            {
                OFFSET 0.0 -0.44777125120162964 0.0
                CHANNELS 3 Zrotation Xrotation Yrotation
                JOINT LeftFoot
                {
                    OFFSET 0.0 -0.10065168142318726 0.0
                    CHANNELS 3 Zrotation Xrotation Yrotation
                    End Site
                    {
                        OFFSET 0.0 0.0 0.0402606800198555
                    }
                }
            }
        }
    }
    JOINT RightHip
    {
        OFFSET -0.13973650336265564 0.0 0.0
        CHANNELS 3 Zrotation Xrotation Yrotation
        JOINT RightKnee
        {
            OFFSET 0.0 -0.4064757227897644 0.0
            CHANNELS 3 Zrotation Xrotation Yrotation
            JOINT RightAnkle
            {
                OFFSET 0.0 -0.44777125120162964 0.0
                CHANNELS 3 Zrotation Xrotation Yrotation
                JOINT RightFoot
                {
                    OFFSET 0.0 -0.10065168142318726 0.0
                    CHANNELS 3 Zrotation Xrotation Yrotation
                    End Site
                    {
                        OFFSET 0.0 0.0 0.0402606800198555
                    }
                }
            }
        }
    }
}
MOTION
Frames: 4
Frame Time: 0.03333333333333333
0.34700000286102295 0.027000000700354576 0.2240000069141388 0.9469534286325515 -2.838406688966196 0.397547905329914 -2.498343591067009 -2.27769295453867 -0.09346314927966758 -4.290322774841849e-08 3.977752515796457e-07 5.450538159449585 92.3486877611501 -6.524711059351988 -178.10753320937275 8.311123459779541e-07 -1.853706568489755e-06 22.80495305234489 2.9574271808672594e-07 17.230750475026024 14.654238843516689 1.590277340731758e-15 -3.1805546814635164e-15 -3.1805546814635164e-15 -89.75148703304481 12.061730895715058 -173.5168647265299 -1.5353503983149836e-06 2.5292195581469516e-06 -29.93734082749662 -179.99999805473567 -43.54654497369646 140.15887593872887 -1.272221872585407e-14 7.951386703658801e-16 -6.361109362927035e-15 6.793231239499634 9.08759550063668 -47.49801988143635 -0.36423411624714874 0.36034903638246757 -0.4342059828726857 89.71210847932205 -48.50145827483581 147.8725984505106 -3.180554681463516e-15 1.590277340731758e-15 4.4139062980501586e-32 -3.0467844048297965 12.684224597757368 45.99573530450532 -1.8097294977151928 -2.7212539041753647 -2.9179817124043623 -92.84710696203534 -35.07487524826445 -154.1071406448671 6.3611093629270335e-15 -4.770832022195275e-15 2.648343778830095e-31
0.3499999940395355 0.027000000700354576 0.22599999606609344 1.420261471927804 -3.7814875592259716 -0.7610775851533861 -2.7647525376482136 -1.5768285562931237 -0.06781165187627437 -1.1544395185292134e-07 1.3645741387613055e-07 6.498191273396181 92.78478571439575 -8.23505073129646 -179.02625988166636 -7.435756378723346e-07 -2.3732674896743834e-06 23.220093608411467 4.671460921754697e-06 38.120640041740764 14.821778605819265 -1.8760303003944957e-15 -1.0414060171962092e-31 6.361109362927033e-15 -89.65475793478409 8.107907039642733 -174.1353512874055 -5.222259757644111e-06 3.2856877530453364e-07 -26.49576259386287 179.9999970459495 -46.65070296805734 139.46679891044624 0.0 0.0 0.0 5.992093309133448 10.57531640070226 -47.5058589167895 0.1259265660172053 0.0907666438112872 -0.1094080457251906 84.32253849738802 -49.21728600359437 142.52265501710338 0.0 0.0 3.1805546814635168e-15 -3.951825647474601 13.270252301382904 46.064566710222124 -1.5451130549120682 -2.3875407243273994 -2.6156124072062497 -92.2896366741579 -36.03821553625745 -153.62388650826162 0.0 1.5902773407317582e-15 0.0
0.3529999852180481 0.026000000536441803 0.2290000021457672 1.8933754775779736 -3.780586834357688 -0.678893227381147 -2.7115052227065246 -2.4255238496082194 -0.049094041931266534 6.930648533645015e-08 5.216276717450046e-07 6.140031484055719 91.9929404277388 -7.1596769338032615 178.87476461111908 3.1317836037787203e-06 -1.2645678726693319e-06 21.806791614709184 -2.113980480428999e-06 42.127565726832394 15.87689038445032 6.1623246953355635e-15 3.420777380988873e-31 6.3611093629270335e-15 -89.97167021886371 5.760821039659377 -172.87485318964616 3.5458506707711665e-06 -1.8204779226109214e-06 -24.637879595772244 -179.99999908565206 -45.55459243837202 141.3068518825876 0.0 0.0 3.1805546814635168e-15 5.260573166222618 11.278627933168938 -48.42542374141443 0.7823102879614126 -0.8249431194796154 1.0079240011970272 83.49789617047614 -47.58628356892444 142.79003901813863 3.1805546814635168e-15 6.3611093629270335e-15 -6.3611093629270335e-15 -4.414211035187974 13.406961867768295 45.61685755826468 -1.4397919136468715 -2.1172056205575975 -2.2672143929656046 -91.38455136092982 -36.15895969708862 -152.28884707352094 -1.7655625192200634e-31 6.3611093629270335e-15 3.1805546814635168e-15
0.3540000021457672 0.027000000700354576 0.23199999332427979 1.9091562422807153 -3.8119576472003094 -0.7284743511390169 -2.8911099076441684 -2.739046045443389 -0.10044493195441306 -1.1276230778140989e-07 4.307490203009272e-07 6.378172772494065 91.96623810486939 -6.427921944156087 177.74917141751087 1.151607099712201e-06 -2.184754510913221e-06 19.20856642542251 7.261774438498888e-07 39.5883286697318 15.562667744739741 -5.565970692561154e-15 0.0 0.0 -89.50451461590731 7.7165531978022095 -171.42362857954203 1.3981934412897819e-06 -4.5658660747045027e-07 -23.753477860369223 -179.9999982160193 -45.448298163174826 140.2590996303179 -6.3611093629270335e-15 1.7655625192200634e-31 -3.1805546814635168e-15 4.945131126227693 12.149819786138531 -48.25545388348508 1.7929202310448054 -1.5113473997054192 1.8474471040085347 82.8076523670148 -48.42896283606652 141.75929881056632 0.0 -7.951386703658792e-15 0.0 -4.5978718684039075 13.594357364307315 46.52118981603135 -1.4819220398699653 -1.9507966041904476 -2.1436679579505 -93.06994677434402 -35.75724211033138 -154.47787596008965 3.1805546814635164e-15 -4.770832022195274e-15 3.1805546814635164e-15
